<svg width="53" height="52" viewBox="0 0 53 52" fill="none" xmlns="http://www.w3.org/2000/svg">
<path d="M33.5575 20.1827L33.5576 20.1827L33.5545 20.1757C33.301 19.5927 33.4297 18.8815 33.9086 18.4278L33.9087 18.4279L33.9183 18.4183L38.5388 13.7978L38.9063 13.4303L38.5249 13.0773C35.2868 10.0803 31.0143 8.3572 26.5 8.3572C16.7819 8.3572 8.85713 16.2819 8.85713 26.0001C8.85713 35.7182 16.7819 43.6429 26.5 43.6429C31.9788 43.6429 37.0468 41.1602 40.4226 36.7854L40.4283 36.7781L40.4336 36.7706C40.4896 36.6922 40.6269 36.6066 40.8244 36.5786C41.0009 36.5843 41.1675 36.644 41.2952 36.748L45.8661 41.3523L45.8744 41.3607L45.8831 41.3686C46.0571 41.5281 46.0984 41.8599 45.8965 42.1285C41.1037 47.9013 34.016 51.2143 26.5 51.2143C12.6132 51.2143 1.28571 39.8869 1.28571 26.0001C1.28571 12.1132 12.6132 0.785767 26.5 0.785767C32.9642 0.785767 39.2376 3.37913 43.869 7.7477L44.2209 8.07963L44.5642 7.7389L48.9169 3.4197L48.9224 3.41426L48.9277 3.40866C49.3773 2.93412 50.0883 2.79764 50.7126 3.05608C51.306 3.31569 51.7143 3.90958 51.7143 4.57148V19.5715C51.7143 20.4672 50.9672 21.2143 50.0714 21.2143H35.0714C34.4116 21.2143 33.8182 20.8083 33.5575 20.1827Z" fill="#F0D9B5" stroke="black"/>
</svg>
