<svg width="32" height="32" viewBox="0 0 32 32" fill="none" xmlns="http://www.w3.org/2000/svg">
<g clip-path="url(#clip0_85_116)">
<path d="M22.4853 25.9853C22.1014 25.9853 21.7177 25.8389 21.4247 25.5461C20.8389 24.9603 20.8389 24.0106 21.4247 23.4247C25.5186 19.3308 25.5186 12.6694 21.4247 8.57549C20.8389 7.98968 20.8389 7.03993 21.4247 6.45418C22.0104 5.86849 22.9602 5.86843 23.546 6.45418C26.0958 9.00387 27.5 12.394 27.5 16C27.5 19.606 26.0958 22.9961 23.546 25.5459C23.2531 25.8389 22.8692 25.9853 22.4853 25.9853ZM17.1569 23.1569C16.773 23.1569 16.3892 23.0104 16.0962 22.7176C15.5104 22.1317 15.5104 21.1821 16.0962 20.5963C18.6306 18.0619 18.6306 13.9382 16.0962 11.4039C15.5104 10.8181 15.5104 9.86837 16.0962 9.28262C16.682 8.69687 17.6317 8.69687 18.2175 9.28262C21.9216 12.9867 21.9216 19.0136 18.2175 22.7177C17.9247 23.0104 17.5408 23.1569 17.1569 23.1569Z" fill="#EBC600"/>
<path d="M13.0002 30.0001C12.7399 30.0001 12.4842 29.8985 12.2929 29.7071L4.58581 22.0001H1C0.44775 22.0001 0 21.5524 0 21.0001V11.0001C0 10.4478 0.44775 10.0001 1 10.0001H4.58581L12.2929 2.29293C12.5789 2.00687 13.009 1.92137 13.3827 2.07618C13.7564 2.231 14 2.59562 14 3.00006V29.0001C14 29.4046 13.7564 29.7692 13.3827 29.9239C13.259 29.9752 13.129 30.0001 13.0002 30.0001Z" fill="#EBC600"/>
</g>
<defs>
<clipPath id="clip0_85_116">
<rect width="32" height="32" fill="white"/>
</clipPath>
</defs>
</svg>
